<?xml version="1.0" encoding="UTF-8" standalone="no"?><!-- Generator: Gravit.io --><svg xmlns="http://www.w3.org/2000/svg" xmlns:xlink="http://www.w3.org/1999/xlink" style="isolation:isolate" viewBox="0 0 1920 1080" width="1920pt" height="1080pt"><defs><clipPath id="_clipPath_wa2YhLjquq1f71JpKVEiDNDkTo5T0Iel"><rect width="1920" height="1080"/></clipPath></defs><g clip-path="url(#_clipPath_wa2YhLjquq1f71JpKVEiDNDkTo5T0Iel)"><rect width="1920" height="1080" style="fill:rgb(0,0,0)" fill-opacity="0"/><path d=" M 1626.667 480 L 1560 546.667 L 1626.667 613.333 L 1560 680 L 1626.667 746.667 L 1560 813.333 L 1626.667 880 L 1560 946.667 L 1626.667 1013.333 L 1560 1080" fill="none" vector-effect="non-scaling-stroke" stroke-width="25" stroke="rgb(252,205,81)" stroke-linejoin="miter" stroke-linecap="square" stroke-miterlimit="3"/><path d=" M 1566.667 -120 L 1620 -53.333 L 1566.667 13.333 L 1620 80 L 1566.667 146.667 L 1620 213.333 L 1566.667 280 L 1620 346.667 L 1566.667 413.333 L 1620 480" fill="none" vector-effect="non-scaling-stroke" stroke-width="25" stroke="rgb(252,205,81)" stroke-linejoin="miter" stroke-linecap="square" stroke-miterlimit="3"/><path d=" M 360 480 L 293.333 546.667 L 360 613.333 L 293.333 680 L 360 746.667 L 293.333 813.333 L 360 880 L 293.333 946.667 L 360 1013.333 L 293.333 1080" fill="none" vector-effect="non-scaling-stroke" stroke-width="25" stroke="rgb(252,205,81)" stroke-linejoin="miter" stroke-linecap="square" stroke-miterlimit="3"/><path d=" M 300 -120 L 353.333 -53.333 L 300 13.333 L 353.333 80 L 300 146.667 L 353.333 213.333 L 300 280 L 353.333 346.667 L 300 413.333 L 353.333 480" fill="none" vector-effect="non-scaling-stroke" stroke-width="25" stroke="rgb(252,205,81)" stroke-linejoin="miter" stroke-linecap="square" stroke-miterlimit="3"/></g></svg>